{
	"asset":{
		"generator":"Khronos glTF Blender I/O v3.5.30",
		"version":"2.0"
	},
	"extensionsUsed":[
		"KHR_materials_specular",
		"KHR_materials_ior"
	],
	"scene":0,
	"scenes":[
		{
			"name":"Scene",
			"nodes":[
				10,
				11,
				12
			]
		}
	],
	"nodes":[
		{
			"mesh":0,
			"name":"Tree1_Material.050_0",
			"translation":[
				0,
				-26.882381439208984,
				7.10684061050415
			]
		},
		{
			"children":[
				0
			],
			"name":"Tree1",
			"rotation":[
				-0.70710688829422,
				0,
				0,
				0.7071066498756409
			],
			"scale":[
				17.662715911865234,
				17.66271209716797,
				17.66271209716797
			],
			"translation":[
				-0.6557855606079102,
				13.184283256530762,
				-600.2177734375
			]
		},
		{
			"mesh":1,
			"name":"Tree1.002_Material.052_0",
			"translation":[
				0,
				-9.71036148071289,
				2.567107677459717
			]
		},
		{
			"children":[
				2
			],
			"name":"Tree1.002",
			"rotation":[
				-0.70710688829422,
				0,
				0,
				0.7071066498756409
			],
			"scale":[
				48.897857666015625,
				48.89784622192383,
				48.89784622192383
			],
			"translation":[
				5.136545181274414,
				210.21029663085938,
				-529.549560546875
			]
		},
		{
			"mesh":2,
			"name":"tree2.003_Material.051_0",
			"translation":[
				0,
				-9.710362434387207,
				2.567107677459717
			]
		},
		{
			"children":[
				4
			],
			"name":"tree2.003",
			"rotation":[
				-0.70710688829422,
				0,
				0,
				0.7071066498756409
			],
			"scale":[
				48.897857666015625,
				48.89784622192383,
				48.89784622192383
			],
			"translation":[
				3.4781055450439453,
				212.15953063964844,
				-528.3746337890625
			]
		},
		{
			"mesh":3,
			"name":"tree7.001_Material.042_0"
		},
		{
			"children":[
				6
			],
			"name":"tree7.001",
			"rotation":[
				-0.70710688829422,
				0,
				0,
				0.7071066498756409
			],
			"scale":[
				100,
				99.99998474121094,
				99.99998474121094
			],
			"translation":[
				4.607398986816406,
				4.272842884063721,
				-2.1143198013305664
			]
		},
		{
			"children":[
				1,
				3,
				5,
				7
			],
			"name":"RootNode"
		},
		{
			"children":[
				8
			],
			"name":"Lowpolytrees.fbx",
			"rotation":[
				0.70710688829422,
				0,
				0,
				0.7071066498756409
			],
			"scale":[
				0.009999999776482582,
				0.009999999776482582,
				0.009999999776482582
			]
		},
		{
			"children":[
				9
			],
			"name":"Sketchfab_model",
			"rotation":[
				-0.5,
				0.5,
				0.5,
				0.5
			],
			"translation":[
				0.014252535998821259,
				0,
				-0.08612140268087387
			]
		},
		{
			"mesh":4,
			"name":"Icosphere",
			"scale":[
				3.1971652507781982,
				3.1971652507781982,
				3.1971652507781982
			],
			"translation":[
				0.44187259674072266,
				0,
				0
			]
		},
		{
			"mesh":5,
			"name":"Plane",
			"scale":[
				25.830656051635742,
				25.830656051635742,
				25.830656051635742
			],
			"translation":[
				0.386629581451416,
				-0.14793674647808075,
				0
			]
		}
	],
	"materials":[
		{
			"doubleSided":true,
			"name":"Material.050",
			"pbrMetallicRoughness":{
				"baseColorTexture":{
					"index":0
				},
				"metallicFactor":0
			}
		},
		{
			"doubleSided":true,
			"name":"Material.052",
			"pbrMetallicRoughness":{
				"baseColorTexture":{
					"index":1
				},
				"metallicFactor":0
			}
		},
		{
			"doubleSided":true,
			"name":"Material.051",
			"pbrMetallicRoughness":{
				"baseColorTexture":{
					"index":2
				},
				"metallicFactor":0,
				"roughnessFactor":0.8783039450645447
			}
		},
		{
			"doubleSided":true,
			"name":"Material.042",
			"pbrMetallicRoughness":{
				"baseColorTexture":{
					"index":3
				},
				"metallicFactor":0
			}
		},
		{
			"doubleSided":true,
			"name":"Material.002",
			"pbrMetallicRoughness":{
				"baseColorFactor":[
					0.2956925630569458,
					0.22167018055915833,
					0.13111068308353424,
					1
				],
				"metallicFactor":0,
				"roughnessFactor":0.5
			}
		},
		{
			"doubleSided":true,
			"extensions":{
				"KHR_materials_specular":{
					"specularColorFactor":[
						0,
						0,
						0
					]
				},
				"KHR_materials_ior":{
					"ior":1.4500000476837158
				}
			},
			"name":"Material.001",
			"pbrMetallicRoughness":{
				"baseColorFactor":[
					0.002365740481764078,
					0.2121397703886032,
					0.8000000715255737,
					1
				],
				"metallicFactor":0,
				"roughnessFactor":0.3636363744735718
			}
		}
	],
	"meshes":[
		{
			"name":"Tree1_Material.050_0",
			"primitives":[
				{
					"attributes":{
						"POSITION":0,
						"TEXCOORD_0":1,
						"NORMAL":2
					},
					"indices":3,
					"material":0
				}
			]
		},
		{
			"name":"Tree1.002_Material.052_0",
			"primitives":[
				{
					"attributes":{
						"POSITION":4,
						"TEXCOORD_0":5,
						"NORMAL":6
					},
					"indices":7,
					"material":1
				}
			]
		},
		{
			"name":"tree2.003_Material.051_0",
			"primitives":[
				{
					"attributes":{
						"POSITION":8,
						"TEXCOORD_0":9,
						"NORMAL":10
					},
					"indices":11,
					"material":2
				}
			]
		},
		{
			"name":"tree7.001_Material.042_0",
			"primitives":[
				{
					"attributes":{
						"POSITION":12,
						"TEXCOORD_0":13,
						"NORMAL":14
					},
					"indices":15,
					"material":3
				}
			]
		},
		{
			"name":"Icosphere",
			"primitives":[
				{
					"attributes":{
						"POSITION":16,
						"TEXCOORD_0":17,
						"NORMAL":18
					},
					"indices":19,
					"material":4
				}
			]
		},
		{
			"name":"Plane",
			"primitives":[
				{
					"attributes":{
						"POSITION":20,
						"TEXCOORD_0":21,
						"NORMAL":22
					},
					"indices":23,
					"material":5
				}
			]
		}
	],
	"textures":[
		{
			"sampler":0,
			"source":0
		},
		{
			"sampler":0,
			"source":0
		},
		{
			"sampler":0,
			"source":0
		},
		{
			"sampler":0,
			"source":0
		}
	],
	"images":[
		{
			"bufferView":4,
			"mimeType":"image/png",
			"name":"Material"
		}
	],
	"accessors":[
		{
			"bufferView":0,
			"componentType":5126,
			"count":667,
			"max":[
				1.1105858087539673,
				1.143510103225708,
				12.186441421508789
			],
			"min":[
				-0.950623631477356,
				-4.781686782836914,
				-1.3635549545288086
			],
			"type":"VEC3"
		},
		{
			"bufferView":1,
			"componentType":5126,
			"count":667,
			"type":"VEC2"
		},
		{
			"bufferView":2,
			"componentType":5126,
			"count":667,
			"type":"VEC3"
		},
		{
			"bufferView":3,
			"componentType":5123,
			"count":1932,
			"type":"SCALAR"
		},
		{
			"bufferView":5,
			"componentType":5126,
			"count":1002,
			"max":[
				0.5272494554519653,
				0.5232220888137817,
				0.18236923217773438
			],
			"min":[
				-0.49651262164115906,
				-0.5549933314323425,
				-0.2807044982910156
			],
			"type":"VEC3"
		},
		{
			"bufferView":6,
			"componentType":5126,
			"count":1002,
			"type":"VEC2"
		},
		{
			"bufferView":7,
			"componentType":5126,
			"count":1002,
			"type":"VEC3"
		},
		{
			"bufferView":8,
			"componentType":5123,
			"count":5940,
			"type":"SCALAR"
		},
		{
			"bufferView":9,
			"componentType":5126,
			"count":1379,
			"max":[
				3.0980734825134277,
				2.7901368141174316,
				1.2015061378479004
			],
			"min":[
				-3.0190329551696777,
				-2.8146190643310547,
				-1.8919274806976318
			],
			"type":"VEC3"
		},
		{
			"bufferView":10,
			"componentType":5126,
			"count":1379,
			"type":"VEC2"
		},
		{
			"bufferView":11,
			"componentType":5126,
			"count":1379,
			"type":"VEC3"
		},
		{
			"bufferView":12,
			"componentType":5123,
			"count":3240,
			"type":"SCALAR"
		},
		{
			"bufferView":13,
			"componentType":5126,
			"count":80,
			"max":[
				0.04729622229933739,
				0.04729258641600609,
				0.15234684944152832
			],
			"min":[
				-0.04635244607925415,
				-0.046356067061424255,
				-0.06384611129760742
			],
			"type":"VEC3"
		},
		{
			"bufferView":14,
			"componentType":5126,
			"count":80,
			"type":"VEC2"
		},
		{
			"bufferView":15,
			"componentType":5126,
			"count":80,
			"type":"VEC3"
		},
		{
			"bufferView":16,
			"componentType":5123,
			"count":276,
			"type":"SCALAR"
		},
		{
			"bufferView":17,
			"componentType":5126,
			"count":22744,
			"max":[
				1.0139957666397095,
				0.683905839920044,
				0.9999999403953552
			],
			"min":[
				-0.9510578513145447,
				-1,
				-0.8851447701454163
			],
			"type":"VEC3"
		},
		{
			"bufferView":18,
			"componentType":5126,
			"count":22744,
			"type":"VEC2"
		},
		{
			"bufferView":19,
			"componentType":5126,
			"count":22744,
			"type":"VEC3"
		},
		{
			"bufferView":20,
			"componentType":5123,
			"count":136350,
			"type":"SCALAR"
		},
		{
			"bufferView":21,
			"componentType":5126,
			"count":4,
			"max":[
				1,
				0,
				1
			],
			"min":[
				-1,
				0,
				-1
			],
			"type":"VEC3"
		},
		{
			"bufferView":22,
			"componentType":5126,
			"count":4,
			"type":"VEC2"
		},
		{
			"bufferView":23,
			"componentType":5126,
			"count":4,
			"type":"VEC3"
		},
		{
			"bufferView":24,
			"componentType":5123,
			"count":6,
			"type":"SCALAR"
		}
	],
	"bufferViews":[
		{
			"buffer":0,
			"byteLength":8004,
			"byteOffset":0,
			"target":34962
		},
		{
			"buffer":0,
			"byteLength":5336,
			"byteOffset":8004,
			"target":34962
		},
		{
			"buffer":0,
			"byteLength":8004,
			"byteOffset":13340,
			"target":34962
		},
		{
			"buffer":0,
			"byteLength":3864,
			"byteOffset":21344,
			"target":34963
		},
		{
			"buffer":0,
			"byteLength":69045,
			"byteOffset":25208
		},
		{
			"buffer":0,
			"byteLength":12024,
			"byteOffset":94256,
			"target":34962
		},
		{
			"buffer":0,
			"byteLength":8016,
			"byteOffset":106280,
			"target":34962
		},
		{
			"buffer":0,
			"byteLength":12024,
			"byteOffset":114296,
			"target":34962
		},
		{
			"buffer":0,
			"byteLength":11880,
			"byteOffset":126320,
			"target":34963
		},
		{
			"buffer":0,
			"byteLength":16548,
			"byteOffset":138200,
			"target":34962
		},
		{
			"buffer":0,
			"byteLength":11032,
			"byteOffset":154748,
			"target":34962
		},
		{
			"buffer":0,
			"byteLength":16548,
			"byteOffset":165780,
			"target":34962
		},
		{
			"buffer":0,
			"byteLength":6480,
			"byteOffset":182328,
			"target":34963
		},
		{
			"buffer":0,
			"byteLength":960,
			"byteOffset":188808,
			"target":34962
		},
		{
			"buffer":0,
			"byteLength":640,
			"byteOffset":189768,
			"target":34962
		},
		{
			"buffer":0,
			"byteLength":960,
			"byteOffset":190408,
			"target":34962
		},
		{
			"buffer":0,
			"byteLength":552,
			"byteOffset":191368,
			"target":34963
		},
		{
			"buffer":0,
			"byteLength":272928,
			"byteOffset":191920,
			"target":34962
		},
		{
			"buffer":0,
			"byteLength":181952,
			"byteOffset":464848,
			"target":34962
		},
		{
			"buffer":0,
			"byteLength":272928,
			"byteOffset":646800,
			"target":34962
		},
		{
			"buffer":0,
			"byteLength":272700,
			"byteOffset":919728,
			"target":34963
		},
		{
			"buffer":0,
			"byteLength":48,
			"byteOffset":1192428,
			"target":34962
		},
		{
			"buffer":0,
			"byteLength":32,
			"byteOffset":1192476,
			"target":34962
		},
		{
			"buffer":0,
			"byteLength":48,
			"byteOffset":1192508,
			"target":34962
		},
		{
			"buffer":0,
			"byteLength":12,
			"byteOffset":1192556,
			"target":34963
		}
	],
	"samplers":[
		{
			"magFilter":9729,
			"minFilter":9987
		}
	],
	"buffers":[
		{
			"byteLength":1192568,
			"uri":"data:application/octet-stream;base64,"
		}
	]
}
